<svg xmlns="http://www.w3.org/2000/svg" viewBox="0 0 32 32" width="32" height="32">
  <!-- Background circle -->
  <circle cx="16" cy="16" r="15" fill="#2563eb" stroke="#1d4ed8" stroke-width="1"/>
  
  <!-- Hammer -->
  <rect x="8" y="12" width="8" height="2" fill="#fbbf24" rx="1"/>
  <rect x="14" y="8" width="2" height="8" fill="#fbbf24" rx="1"/>
  
  <!-- Wrench -->
  <path d="M20 10 L24 14 L22 16 L18 12 Z" fill="#f59e0b"/>
  <rect x="22" y="16" width="2" height="6" fill="#f59e0b" rx="1"/>
  
  <!-- Screwdriver -->
  <rect x="6" y="18" width="2" height="8" fill="#dc2626" rx="1"/>
  <polygon points="6,18 8,16 10,18" fill="#dc2626"/>
  
  <!-- Gear -->
  <circle cx="24" cy="8" r="2" fill="#059669" stroke="#047857" stroke-width="0.5"/>
  <circle cx="24" cy="8" r="1" fill="none" stroke="#047857" stroke-width="0.5"/>
  <line x1="24" y1="6" x2="24" y2="4" stroke="#047857" stroke-width="0.5"/>
  <line x1="24" y1="10" x2="24" y2="12" stroke="#047857" stroke-width="0.5"/>
  <line x1="26" y1="8" x2="28" y2="8" stroke="#047857" stroke-width="0.5"/>
  <line x1="20" y1="8" x2="22" y2="8" stroke="#047857" stroke-width="0.5"/>
</svg>
